<svg width="680" height="200" viewBox="0 0 680 200" role="img" xmlns="http://www.w3.org/2000/svg">
  <rect width="680" height="200" fill="#0d1117"/>
  <g stroke="#1e2a3a" stroke-width="0.5" fill="none">
    <line x1="0" y1="40" x2="680" y2="40"/><line x1="0" y1="80" x2="680" y2="80"/>
    <line x1="0" y1="120" x2="680" y2="120"/><line x1="0" y1="160" x2="680" y2="160"/>
    <line x1="80" y1="0" x2="80" y2="200"/><line x1="160" y1="0" x2="160" y2="200"/>
    <line x1="240" y1="0" x2="240" y2="200"/><line x1="320" y1="0" x2="320" y2="200"/>
    <line x1="400" y1="0" x2="400" y2="200"/><line x1="480" y1="0" x2="480" y2="200"/>
    <line x1="560" y1="0" x2="560" y2="200"/><line x1="640" y1="0" x2="640" y2="200"/>
  </g>
  <circle cx="80" cy="40" r="2" fill="#1e3a5a"/><circle cx="160" cy="80" r="2" fill="#1e3a5a"/>
  <circle cx="400" cy="40" r="2" fill="#1e3a5a"/><circle cx="560" cy="120" r="2" fill="#1e3a5a"/>
  <circle cx="640" cy="80" r="2" fill="#1e3a5a"/><circle cx="240" cy="160" r="2" fill="#1e3a5a"/>
  <circle cx="480" cy="160" r="2" fill="#1e3a5a"/>
  <text x="52" y="58" font-family="monospace" font-size="11" fill="#1a4a7a" opacity="0.7">&lt;dev&gt;</text>
  <text x="590" y="150" font-family="monospace" font-size="11" fill="#3a1a6a" opacity="0.7">&lt;/dev&gt;</text>
  <text x="580" y="52" font-family="monospace" font-size="10" fill="#0e4a3a" opacity="0.6">fn() =&gt;</text>
  <text x="44" y="168" font-family="monospace" font-size="10" fill="#3a2a0a" opacity="0.6">git push</text>
  <text x="430" y="172" font-family="monospace" font-size="10" fill="#1a4a7a" opacity="0.5">0x7f3a</text>
  <text x="256" y="32" font-family="monospace" font-size="10" fill="#0e4a3a" opacity="0.5">&#x2211; build</text>
  <circle cx="92" cy="100" r="18" fill="none" stroke="#0e75b6" stroke-width="0.5" opacity="0.3"/>
  <circle cx="92" cy="100" r="10" fill="none" stroke="#0e75b6" stroke-width="0.5" opacity="0.5"/>
  <circle cx="92" cy="100" r="3" fill="#0e75b6" opacity="0.6"/>
  <circle cx="590" cy="98" r="22" fill="none" stroke="#7c3aed" stroke-width="0.5" opacity="0.3"/>
  <circle cx="590" cy="98" r="12" fill="none" stroke="#7c3aed" stroke-width="0.5" opacity="0.5"/>
  <circle cx="590" cy="98" r="3" fill="#7c3aed" opacity="0.6"/>
  <line x1="92" y1="100" x2="160" y2="100" stroke="#0e75b6" stroke-width="0.5" opacity="0.2"/>
  <line x1="520" y1="100" x2="590" y2="100" stroke="#7c3aed" stroke-width="0.5" opacity="0.2"/>
  <text x="340" y="88" font-family="'Segoe UI', Arial, sans-serif" font-size="34" font-weight="700" fill="#ffffff" text-anchor="middle" letter-spacing="1">Rishiraj Debnath</text>
  <line x1="200" y1="98" x2="280" y2="98" stroke="#0e75b6" stroke-width="1" opacity="0.6"/>
  <line x1="400" y1="98" x2="480" y2="98" stroke="#7c3aed" stroke-width="1" opacity="0.6"/>
  <text x="340" y="120" font-family="monospace" font-size="12" fill="#8b949e" text-anchor="middle" letter-spacing="2">Full Stack Engineer · Web3 Explorer · Founder</text>
  <rect x="210" y="134" width="260" height="24" rx="12" fill="none" stroke="#1e2a3a" stroke-width="0.5"/>
  <text x="340" y="150" font-family="monospace" font-size="11" fill="#0e75b6" text-anchor="middle" letter-spacing="1">campuskart.space</text>
  <rect x="0" y="192" width="227" height="4" fill="#0e75b6" opacity="0.8"/>
  <rect x="227" y="192" width="226" height="4" fill="#7c3aed" opacity="0.8"/>
  <rect x="453" y="192" width="227" height="4" fill="#0e75b6" opacity="0.4"/>
</svg>
